<svg width="51" height="93" viewBox="0 0 51 93" fill="none" xmlns="http://www.w3.org/2000/svg">
<path d="M43.6549 6.47387C39.143 2.62532 32.9312 0.193143 26.038 0.0143069C25.7726 0 25.5072 0 25.2418 0C18.4274 0 12.2228 2.23188 7.65359 5.92306C3.09156 9.60708 0.157805 14.779 0.00717179 20.5733C-1.2038e-06 20.7307 0 20.8809 0 21.0383C0 26.8469 2.81899 32.1404 7.32363 35.9818C8.34219 36.8546 9.45401 37.6486 10.6376 38.3639C9.96329 38.3854 9.2962 38.4069 8.62194 38.4355C7.81856 38.4784 7.00802 38.507 6.20464 38.5785C5.58776 38.6358 5.02827 38.7502 4.4616 38.9005C4.22489 38.7359 3.88059 38.7574 3.75865 39.0793L3.75148 39.1222C3.61519 39.2224 3.59367 39.4012 3.65105 39.5586C3.59367 40.0522 3.67975 40.603 3.70844 41.0751C3.7443 41.7475 3.78017 42.42 3.82321 43.0924C3.86624 43.7648 3.92363 44.4372 3.97384 45.1025C3.98818 45.3171 3.98819 45.546 4.00253 45.7821C3.30675 46.7979 3.03418 48.0783 3.09873 49.2944C3.16329 50.5892 3.67975 51.9483 4.58354 52.8926C5.04262 53.3719 5.65949 53.6509 6.32658 53.8154C7.00084 54.8026 7.74684 55.7397 8.47131 56.6911C8.88017 57.2276 9.27468 57.7999 9.71224 58.3149C10.1498 58.83 10.7667 58.9873 11.3118 58.5152C11.7781 58.1075 12.1582 57.528 12.5384 57.0416C12.9473 56.5337 13.3346 56.0115 13.7219 55.4821C13.973 55.1388 14.2169 54.7811 14.4679 54.4306C14.1954 55.847 13.9587 57.2705 13.765 58.694C13.5498 60.2678 13.3848 61.8559 13.2629 63.4439C13.1481 64.939 12.9831 66.4913 13.184 67.9864C13.5139 70.4901 15.1852 72.3357 17.5236 73.2084C18.6283 73.6233 19.7759 73.845 20.9451 73.9595C20.8734 75.0325 20.9595 76.1556 20.9523 77.2C20.9451 78.7595 20.9093 80.3118 20.8519 81.8641C20.7802 83.6167 20.6797 85.3621 20.5435 87.1075C18.9367 86.8929 17.2152 87.0718 15.6802 87.4581C14.3962 87.78 11.8354 88.3093 11.5844 89.9117C11.2975 91.7644 14.0447 92.1078 15.3215 92.3153C17.2367 92.63 19.2165 92.6229 21.1173 92.2509C21.476 92.1793 21.7916 91.9004 21.8274 91.5212C22.1359 88.3165 22.3439 85.1046 22.4013 81.8927C22.43 80.3189 22.43 78.7452 22.4084 77.1714C22.3941 76.1771 22.4371 75.0897 22.3152 74.0525C23.3266 74.0883 24.338 74.0668 25.3422 74.031C27.6878 73.9523 30.0262 73.6948 32.3359 73.2799C32.2928 74.2385 32.343 75.1971 32.3789 76.1628C32.4291 77.5648 32.4793 78.9741 32.5295 80.3761C32.63 83.1374 32.7304 85.8915 32.8165 88.6527C32.8308 89.1964 32.7447 89.8831 33.0532 90.3695C33.3616 90.8488 33.9283 90.9489 34.4519 91.0491C35.7646 91.3066 37.1274 91.3638 38.4616 91.2422C39.5806 91.1421 40.8932 90.9632 41.7755 90.1978C42.543 89.5326 42.873 88.3379 42.3278 87.4366C41.6464 86.3135 40.176 86.4494 39.0426 86.4065C38.311 86.3779 37.5793 86.3493 36.8477 86.3207C36.1089 86.292 35.1835 86.1061 34.5308 86.4852L34.416 86.571C34.3013 84.4822 34.1865 82.3863 34.0789 80.2903C34.0072 78.9383 33.9354 77.5863 33.8637 76.2415C33.8063 75.1613 33.7776 74.0811 33.6127 73.0153C34.043 72.9223 34.4806 72.8436 34.911 72.7434C37.4502 72.1425 40.262 71.2126 41.1873 68.4943C42.1055 65.7974 41.008 62.8216 40.2333 60.2177C39.4802 57.6783 38.6338 55.1674 37.7084 52.6923C38.7916 52.0843 39.7886 51.3475 40.6494 50.4533C41.5173 49.5519 42.5717 48.3287 41.5245 47.1555C40.9506 46.5189 40.1903 45.9967 39.5376 45.453C38.8059 44.8378 38.0671 44.2298 37.3283 43.6289C36.3169 42.8062 35.3127 41.9693 34.2439 41.2182C37.6726 40.2024 40.7713 38.5857 43.3464 36.5112C47.9084 32.8272 50.8422 27.6552 50.9928 21.8609C51 21.7107 51 21.5533 51 21.396C50.9857 15.6017 48.1667 10.3153 43.6549 6.47387ZM20.2135 90.6771C19.116 90.7916 18.0186 90.8202 16.9139 90.72C16.2612 90.6557 15.6228 90.5555 14.9772 90.4196C14.6042 90.3409 14.224 90.2551 13.8582 90.1406C13.7793 90.1191 13.6932 90.0905 13.6143 90.0619C14.7549 89.5397 15.8523 89.132 17.1004 88.9317C18.2122 88.7528 19.2882 88.7814 20.3928 88.853C20.3426 89.461 20.2781 90.0691 20.2135 90.6771ZM36.1734 88.1734C36.8549 88.1877 37.5435 88.202 38.2249 88.2163C38.8776 88.2306 39.5376 88.2163 40.1903 88.2592C40.5274 88.2807 40.965 88.2807 40.7139 88.7242C40.4557 89.182 39.6667 89.2679 39.2004 89.3466C38.5333 89.4682 37.8519 89.5397 37.1705 89.554C36.4747 89.5612 35.7717 89.504 35.0831 89.4038C35.0042 89.3895 34.5954 89.2679 34.5021 89.3323C34.4591 89.0747 34.5021 88.574 34.4949 88.4238C34.4878 88.2449 34.4734 88.0661 34.4662 87.8873C35.0114 88.1877 35.5422 88.1591 36.1734 88.1734ZM4.97806 47.2628C5.00675 47.1841 5.04979 47.0983 5.08565 47.0125L5.20042 46.9195C5.30802 46.7836 5.37257 46.6333 5.40127 46.4616C5.57342 46.2256 5.77426 46.0324 6.03249 45.9323C6.89325 45.6032 6.90042 46.7621 6.74979 47.2843C6.41983 48.4074 5.70253 49.4518 4.88481 50.3031C4.58354 49.323 4.60506 48.2142 4.97806 47.2628ZM6.0038 52.0628C5.80295 51.9412 5.63797 51.748 5.48734 51.5477C6.96498 50.1028 9.74093 46.3687 7.20886 44.7162C6.59198 44.3156 5.90338 44.3657 5.29367 44.6518C5.25063 44.0939 5.20759 43.5287 5.15738 42.9708C5.1 42.327 5.02827 41.6831 4.96371 41.0393C4.93502 40.7174 4.92067 40.3526 4.87764 39.9949C5.35105 40.045 5.82447 40.0879 6.32658 40.0808C7.16582 40.0736 8.01223 40.0378 8.85148 40.0164C10.2717 39.9878 11.692 39.9449 13.1194 39.9162C13.392 41.0823 13.27 42.3198 13.1911 43.5001C13.0907 45.0095 12.9473 46.5117 12.7966 48.0211C12.7177 48.7722 12.6388 49.5233 12.5527 50.2744C12.4738 50.9397 12.4667 51.6908 12.2802 52.3346C12.1582 52.7495 11.9502 52.7567 11.5342 52.7638C11.1612 52.771 10.7954 52.7567 10.4224 52.7352C9.68354 52.6995 8.94473 52.6279 8.20591 52.5278C7.55316 52.4348 6.58481 52.4276 6.0038 52.0628ZM13.8511 52.9212C13.4709 53.4506 13.0835 53.9728 12.6962 54.495C12.3232 54.9957 11.9359 55.4821 11.5629 55.9829C11.3549 56.2547 11.1468 56.5194 10.9388 56.7912C10.8312 56.9271 10.7308 57.0559 10.6232 57.1918L10.5658 57.2562C10.5013 57.1632 10.4367 57.0702 10.3865 57.0058L9.87004 56.3906C9.52574 55.9829 9.18861 55.5751 8.8443 55.1602C8.54304 54.7954 8.2346 54.4306 7.92616 54.0729C8.24894 54.1015 8.56456 54.123 8.86582 54.1445C9.62616 54.2017 10.3865 54.216 11.154 54.2017C11.8713 54.1874 12.6316 54.216 13.1696 53.658C13.5426 53.2646 13.6717 52.7495 13.7506 52.2273C13.8869 51.3618 13.9802 50.4747 14.0949 49.602C14.3316 47.7278 14.5325 45.8465 14.7046 43.9651C14.8194 42.7705 14.9413 41.583 14.8266 40.417C15.9025 40.839 17.0215 41.2039 18.1764 41.4972C17.0932 44.0223 16.297 46.6691 15.6084 49.3302C15.4219 50.0598 15.2426 50.7966 15.0705 51.5334C14.511 51.8553 14.2169 52.4133 13.8511 52.9212ZM38.8203 68.5944C38.146 69.553 37.0055 70.018 35.9295 70.3613C33.2468 71.2197 30.3705 71.6489 27.573 71.9136C25.0122 72.1568 22.3224 72.3285 19.7759 71.8492C17.7173 71.463 15.6586 70.4543 15.1278 68.2654C14.8122 66.9777 14.9413 65.5971 15.0131 64.2952C15.092 62.8001 15.2139 61.3122 15.3789 59.8243C15.7376 56.5623 16.297 53.3218 17.0502 50.1314C17.7173 47.3201 18.5709 44.5588 19.3814 41.7904C21.1675 42.1696 23.0253 42.3985 24.9405 42.4486C25.2059 42.4557 25.4713 42.4557 25.7367 42.4557C27.4367 42.4557 29.1008 42.3126 30.7076 42.048C32.1278 44.8736 33.4333 47.7564 34.6241 50.6893C34.2869 50.3746 33.8996 50.1171 33.5983 49.9597C32.5511 49.4303 31.2671 49.3373 30.1409 49.6449C28.943 49.974 27.7451 50.8038 27.3291 52.0199C26.8055 53.5507 28.0464 54.8312 29.5384 54.9599C30.8654 55.0744 32.3574 54.6595 33.627 54.309C34.3515 54.1087 35.0616 53.8798 35.7646 53.6079C36.2093 54.8026 36.6468 56.0043 37.0557 57.2204C37.9308 59.81 38.9565 62.5211 39.3367 65.2394C39.4945 66.3768 39.5017 67.6216 38.8203 68.5944ZM33.5409 52.5564C32.6515 52.7853 31.7477 52.957 30.8367 53.0786C30.1696 53.1644 28.4266 53.286 29.3232 52.1773C29.8325 51.5478 30.6789 51.2473 31.4679 51.2402C31.8911 51.233 32.3143 51.3188 32.7017 51.4762C32.8954 51.5549 33.0675 51.6479 33.2397 51.7767C33.3042 51.8267 33.3759 51.8768 33.4405 51.934L33.5624 52.0556C33.4835 52.2273 33.4835 52.399 33.5409 52.5564ZM37.5506 45.4745C38.4975 46.2757 39.516 47.0411 40.3911 47.9209C40.6207 48.1499 40.5848 48.2357 40.3983 48.5075C40.2835 48.6721 40.1401 48.8294 40.0038 48.9797C39.6667 49.3588 39.2865 49.7022 38.892 50.0241C38.3397 50.4676 37.7371 50.8539 37.1059 51.1901C35.8363 47.9353 34.416 44.7377 32.8595 41.6045C32.8954 41.5973 32.9241 41.5901 32.9599 41.583C34.3873 42.9851 36.03 44.1869 37.5506 45.4745ZM42.1772 35.1091C39.3439 37.3982 35.7789 39.1007 31.8051 39.9735C31.3316 39.7374 30.7219 39.8805 30.4063 40.2453C28.9 40.4957 27.3435 40.6244 25.7439 40.6244C25.4928 40.6244 25.2418 40.6244 24.9907 40.6173C20.4717 40.5028 16.2827 39.3511 12.7464 37.4626C12.7392 37.4054 12.7321 37.3553 12.7321 37.3052C12.7321 37.2265 12.7392 37.1479 12.7536 37.0692C12.7751 36.9476 12.7392 37.0763 12.7823 36.9476C12.8038 36.8903 12.8325 36.8331 12.8612 36.7687C12.8755 36.7401 12.8755 36.733 12.9257 36.6614C13.1051 36.3896 13.2557 36.2394 13.4924 36.0534C14.0734 35.5741 14.6042 35.3166 15.2641 34.9374C15.6228 34.73 15.9886 34.5225 16.3473 34.3151C16.7633 34.079 17.3587 33.8501 17.6312 33.4567C18.0186 32.8844 17.5882 32.1118 16.8852 32.1905C16.3975 32.2477 15.9312 32.6626 15.5224 32.9202C15.1565 33.1562 14.7907 33.3851 14.4177 33.6212C13.7937 34.0218 13.1409 34.3938 12.5814 34.8874C12.0435 35.3738 11.5844 35.9461 11.4409 36.6686C11.4409 36.6757 11.4409 36.6829 11.4409 36.69C10.4008 36.0462 9.42532 35.3452 8.52869 34.5798C4.36118 31.0174 1.84346 26.2317 1.84346 21.0311C1.84346 20.8952 1.84346 20.7522 1.85063 20.6162C1.98692 15.4157 4.59789 10.7516 8.81561 7.33944C13.0333 3.9344 18.8363 1.82413 25.2489 1.82413C25.5 1.82413 25.7511 1.82413 26.0021 1.83128C32.4937 1.99581 38.311 4.29922 42.4785 7.85449C46.646 11.4169 49.1637 16.2026 49.1637 21.4031C49.1637 21.539 49.1637 21.6821 49.1565 21.818C49.0059 27.0257 46.3878 31.6969 42.1772 35.1091Z" fill="#242647"/>
<path d="M14.0303 21.4173C13.643 21.3315 13.2413 21.5175 13.0046 21.8251L12.9544 21.9109C12.8539 22.0111 12.7679 22.1255 12.7033 22.2543C12.5527 22.5476 12.4953 22.9196 12.4738 23.2486C12.4594 23.5347 12.4738 23.8209 12.5096 24.0999C12.5025 24.293 12.4953 24.4933 12.5025 24.6865C12.5096 24.9869 12.5885 25.2945 12.7679 25.5377C13.0046 25.8739 13.4421 26.0671 13.851 25.9812C14.2814 25.8954 14.6185 25.6236 14.805 25.2301C14.9269 24.9797 14.9556 24.7008 14.97 24.4289C15.0058 24.2716 15.0345 24.107 15.0489 23.9496C15.1134 23.3774 15.1063 22.6763 14.8552 22.147C14.6974 21.7893 14.4248 21.5032 14.0303 21.4173Z" fill="#242647"/>
<path d="M31.9986 21.8823C31.6112 21.7965 31.2095 21.9824 30.9728 22.29L30.9226 22.3759C30.8222 22.476 30.7361 22.5905 30.6716 22.7192C30.5209 23.0125 30.4635 23.3845 30.442 23.7136C30.4277 23.9997 30.442 24.2859 30.4779 24.5648C30.4707 24.758 30.4635 24.9583 30.4707 25.1514C30.4779 25.4519 30.5568 25.7595 30.7361 26.0027C30.9728 26.3389 31.4104 26.532 31.8192 26.4462C32.2496 26.3604 32.5867 26.0885 32.7732 25.6951C32.8952 25.4447 32.9239 25.1657 32.9382 24.8939C32.9741 24.7365 33.0028 24.572 33.0171 24.4146C33.0817 23.8423 33.0745 23.1413 32.8235 22.6119C32.6656 22.2471 32.3931 21.961 31.9986 21.8823Z" fill="#242647"/>
<path d="M21.8421 28.7426C21.5408 28.5279 21.1893 28.4707 20.8378 28.5709C20.5151 28.6639 20.2784 28.8928 20.1062 29.1646C19.6687 29.5151 19.4606 30.1232 19.4176 30.6883C19.3746 31.2963 19.4463 31.9473 19.6758 32.5196C19.7906 32.8343 19.9484 33.1276 20.1851 33.3351C20.3357 33.4853 20.5079 33.5997 20.7159 33.6713C21.175 33.8215 21.6843 33.75 22.0716 33.4352C22.6957 32.9202 22.8033 32.1047 22.7889 31.3536C22.7746 30.6668 22.6024 29.9586 22.2868 29.3434C22.1792 29.1145 22.0501 28.8856 21.8421 28.7426Z" fill="#242647"/>
</svg>
